<svg viewBox="0 0 574.73 144.05" xmlns="http://www.w3.org/2000/svg" data-sanitized-data-name="Layer 1" data-name="Layer 1" id="Layer_1"><defs><style>.cls-1{fill:#f7f7f8;}.cls-1,.cls-2{fill-rule:evenodd;}.cls-2,.cls-3{fill:#d7a65b;}</style></defs><title>Signize logo (White)</title><path transform="translate(-13.65 -69.12)" d="M155.11,111.87a52.87,52.87,0,0,0,.12,6.3c.79,6.62,1.69,11.43,5,17.59A44.63,44.63,0,0,0,177.84,154l3.23,1.61c.65.33.93.46,1.65.76,1.27.53,2.12.88,3.5,1.34,7.58,2.55,13.08,2.83,20.94,2.31a50.24,50.24,0,0,0,11.78-2.53l3.53-1.3a53.75,53.75,0,0,0,12.19-7c.91-.68,1.68-1.36,2.58-2.07a9.77,9.77,0,0,0,1.28-1.14c1.11-1.13,2-1.47,3.66-3.59.43-.56,2.15-2.08,2.15-2.68V108.89H208.08v15.8c0,.46-.41.75.37.75h17.29c0,7.29.61,5.18-2.05,8.36a30.66,30.66,0,0,1-6.44,5.27,26.62,26.62,0,0,1-27.86-.14c-.75-.46-1.46-.94-2.13-1.41a27.35,27.35,0,0,1-3.76-3.3,27.88,27.88,0,0,1-5.72-8.22,27.23,27.23,0,0,1,2.5-27.25,20.28,20.28,0,0,1,2.38-2.82,26.51,26.51,0,0,1,9.27-6.53c6.39-2.6,11.1-2.82,17.8-1.67,4.59.78,8.84,3.1,12.55,5.66.61.42,1.05.83,1.6,1.19l7.94-5.26c1.43-1.06,7.39-4.7,7.86-5.33a31.44,31.44,0,0,0-4.62-4.12,53.09,53.09,0,0,0-17.95-8.82A51.66,51.66,0,0,0,203,69.12h-.07a51.13,51.13,0,0,0-31.23,10.59l-2.37,2.09a43.69,43.69,0,0,0-14,28.41Z" class="cls-1"></path><path transform="translate(-13.65 -69.12)" d="M18.67,94a23,23,0,0,0,2,10.68,26.11,26.11,0,0,0,4,6.57A19.81,19.81,0,0,0,32.18,117l3.65,1.56c8,3.1,19.23,5,25,9.55,2.92,2.32,5,7,2.26,10.76-7.7,10.81-27.17,1.7-35.32-3.71l-6.32-4.47-3,6a7.07,7.07,0,0,0-.45,1,7.84,7.84,0,0,1-.54,1l-3.85,8c5.38,3.6,9.89,6.78,16,9.27,7.19,2.92,16.77,5,25.79,4.08,6.88-.71,16.87-2.8,21.63-7.36a22.37,22.37,0,0,0,5.06-5.91c3.07-5.09,3.45-8.53,3.45-14.39,0-4.83-2.93-11.55-6.18-14.83a26.89,26.89,0,0,0-5.64-4.77,35.51,35.51,0,0,0-7.26-3.34c-1.31-.46-2.49-.93-3.76-1.44-2.65-1.07-17.63-6.63-19-7.41-5.18-3-5.75-9-1.44-12.59,3.94-3.32,11.94-2.08,16.49-1A72.69,72.69,0,0,1,74.13,93,23.06,23.06,0,0,0,77,94.58l7.25-16c-4.37-2.31-7.38-4.37-12.53-6.07-.88-.29-1.55-.57-2.34-.81-8.28-2.5-11.25-2.37-19.15-2.42l-6,.32c-4.92.68-9.94,2.06-13.89,4.7a27.43,27.43,0,0,0-6.55,5.91A23.81,23.81,0,0,0,18.67,94Z" class="cls-1"></path><path transform="translate(-13.65 -69.12)" d="M521.66,69.86v90.52h66.73V143.1H540.24V86h46.84V69.86c0-.78-.28-.37-.74-.37H522.4C522,69.49,521.66,69.08,521.66,69.86Z" class="cls-1"></path><path transform="translate(-13.65 -69.12)" d="M270,69.86v90.52h18.59V102.2a38.23,38.23,0,0,1,3,4.41l11.5,17.3c.8,1.21,1.66,2.39,2.37,3.58.42.7.76,1.06,1.19,1.79a21.92,21.92,0,0,0,1.24,1.92c.83,1.16,1.56,2.35,2.38,3.57l17,25.61h19.89L310.76,105.1c-.38-.56-.56-.94-.95-1.46l-8.42-12.78c-.32-.49-.62-.92-1-1.45l-1.86-2.78L287.26,69.49H271.64C270.79,69.48,270,69.08,270,69.86Z" class="cls-1"></path><path transform="translate(-13.65 -69.12)" d="M420.91,145.88v14.5h74.54V142.54H448.23c.21-.77,5.16-6.66,5.77-7.44,1.93-2.47,3.89-4.81,5.86-7.33l14.61-18.29c.53-.68,1-1.16,1.49-1.86,3.8-5.11,9.37-11.41,13.19-16.54.47-.64.89-1.13,1.41-1.76s.93-1.22,1.49-1.85c.42-.46,2.84-3.44,2.84-3.85V69.86c0-.78-.67-.39-1.47-.37-1.92.06-10.75-.33-11.5.22l-46.28,57.63c-.76.93-1.37,1.77-2.13,2.7-1.45,1.77-2.85,3.48-4.24,5.25s-2.78,3.48-4.23,5.25L423,143.12A17,17,0,0,0,420.91,145.88Z" class="cls-1"></path><path transform="translate(-13.65 -69.12)" d="M375.37,69.86v90.52h19.89V69.86c0-.78-.29-.37-.74-.37H376.11C375.66,69.49,375.37,69.08,375.37,69.86Z" class="cls-1"></path><path transform="translate(-13.65 -69.12)" d="M110.5,69.86v90.52h19.88V69.49H111.24C110.78,69.49,110.5,69.08,110.5,69.86Z" class="cls-1"></path><path transform="translate(-13.65 -69.12)" d="M328.53,69.86V113c0,1.19,2.43,6.91,3,8,2.8,5.67,3.88,7.34,7.67,11.66.95,1.09,0,.24,1.39,1.4s4.55,4.13,6.56,4.6v-68c0-1.68.05-1.1-.76-1.1h-17.1C328.82,69.49,328.53,69.08,328.53,69.86Z" class="cls-1"></path><path transform="translate(-13.65 -69.12)" d="M423.51,69.86V86.22c0,.43.13.56.56.56h31.6c2.29,0,7.07-4.74,8.29-6.58a19.15,19.15,0,0,0,3.22-9.83c.14-1.45-.13-.88-.73-.88H424.26C423.8,69.49,423.51,69.08,423.51,69.86Z" class="cls-2"></path><path transform="translate(-13.65 -69.12)" d="M554,122.84h29.18V107.41c0-.43-.13-.56-.56-.56H556.41c-.78,0-.74,2-.91,3.55s-.38,2.79-.54,4.11-.28,2.67-.48,4.16A31.15,31.15,0,0,0,554,122.84Z" class="cls-1"></path><path transform="translate(-13.65 -69.12)" d="M298.6,210.2h-3.34v-9.85c3.81,0,9.93-.84,11.43,2.69.89,2.11.58,5.21-2,6.36a17.58,17.58,0,0,1-6.08.8Zm1.68-12.46h-5v-8.36h5.39c3.23,0,5.4,1.1,5.32,4.25s-2.42,4.11-5.69,4.11Zm-8.18,14.32c0,.43.13.55.56.55,4.32,0,10.69.53,14.06-1.17,5.4-2.71,4.29-11.24-.68-12.39v-.38a4.65,4.65,0,0,0,3-4.09c0-2.58.06-5-2.72-6.57-3.08-1.7-10.22-1.23-14.19-1.23Z" class="cls-2"></path><path transform="translate(-13.65 -69.12)" d="M420.17,199.79h-5.58V189.38c5.71,0,11.52-1.09,11.52,5.2,0,3.8-2.17,5.21-5.94,5.21Zm-8.55,12.82h3V202.39c4.07,0,9.53.39,12.43-2.07,3.26-2.77,4.76-13.54-7-13.54h-8.36Z" class="cls-2"></path><path transform="translate(-13.65 -69.12)" d="M87.63,212.61h2.79l8.74-25.83h-3c-.16.69-.59,1.67-.86,2.48-1.8,5.47-4.11,11.46-5.85,16.83l-.54,1.32-6.2-18c-.17-.52-.31-.84-.44-1.23a5.09,5.09,0,0,1-.42-1.44H78.71c.25,1.08.75,2.15,1.09,3.18l3.35,9.67c.73,2.2,1.46,4.37,2.23,6.5.38,1.07.76,2.11,1.11,3.16Z" class="cls-2"></path><path transform="translate(-13.65 -69.12)" d="M362.92,205.92c0-2.09,0-3.77,1.45-5.42s3.62-1.5,5.47-1.31c.67.07,1.26-.12,1.26.6v8.55c0,1.88-8.18,5.28-8.18-2.42Zm4.25,7.25a6.11,6.11,0,0,0,2.38-.61,13.3,13.3,0,0,0,1.92-1.43c.12.51.25,1,.37,1.48,1.07,0,1.42-.16,2.23-.18,0-2.15-.19-3.6-.19-5.76V186.78c-.79,0-.66.13-1.5.17-.68,0-1.28-.15-1.28.57v9.29c-2.29,0-5.16-1-8.78,1.83-2.88,2.28-3.34,9.41-.57,12.54a6.61,6.61,0,0,0,4.48,2Z" class="cls-2"></path><path transform="translate(-13.65 -69.12)" d="M223.32,202.76v9.85c3.92,0,3.16.71,3.16-3.71,0-1.49,0-3,0-4.46,0-2.25-.07-1.95.83-3.46l7.2-12.68a4.93,4.93,0,0,0,.71-1.52h-3.16l-6.19,10.91c-.43.77-.36,1.07-1.06,1.54l-6.88-12.45h-3.34l4.38,7.89C219.47,195.49,223.32,201.89,223.32,202.76Z" class="cls-2"></path><path transform="translate(-13.65 -69.12)" d="M197.3,199.05a4.32,4.32,0,0,1,4.46,4.46H193a4.88,4.88,0,0,1,1.25-3,4.36,4.36,0,0,1,3-1.43Zm1.38,14.12a7.47,7.47,0,0,0,3.26-.93c.9-.53,2.14-1.36,2.42-2.41-.63-.43-1.25-.9-1.86-1.31-1.22.82-1.35,2.24-5,2.24-2.55,0-4.47-2.21-4.47-5h11.9c0-2.7-.16-5-1.9-6.84-3.82-4.13-13-2.81-13,5.35,0,2.84.07,4.82,2,6.74a8.3,8.3,0,0,0,5.28,2.18Z" class="cls-2"></path><path transform="translate(-13.65 -69.12)" d="M467.19,199.05a4.52,4.52,0,0,1,4.46,4.46h-8.73a4.48,4.48,0,0,1,1.2-3.08,5.66,5.66,0,0,1,1.27-1,6.66,6.66,0,0,1,1.8-.42Zm-7.25,4.64v2.42a7,7,0,0,0,7.25,7.06h.1a7.47,7.47,0,0,0,4.49-1c.86-.45,2.23-1.42,2.48-2.35-.91-.25-1.14-1.05-2.23-1.31-.74,2.78-9.11,4-9.11-2.78h11.71c0-2.55.16-5.22-2.15-7.15C467.55,194.46,459.94,197.14,459.94,203.69Z" class="cls-2"></path><path transform="translate(-13.65 -69.12)" d="M438.38,210.76c-5.67,0-5.39-3.82-5.39-7.25,0-5.71,9.85-6.31,9.85.37,0,2,.21,3.94-1.24,5.44a4.76,4.76,0,0,1-3.22,1.44Zm.36,2.41a8.65,8.65,0,0,0,4.83-1.88,4.94,4.94,0,0,0,1.51-2c.94-2.15.74-3.46.74-5.76,0-9.19-15.8-9.15-15.8,0v2.6c0,4.38,3.41,6.76,7.09,7.06Z" class="cls-2"></path><path transform="translate(-13.65 -69.12)" d="M235.4,205.92c0-3.16.3-6.87,5-6.87,5.23,0,4.84,4.63,4.84,7.43,0,5.48-9.86,6.12-9.86-.56Zm-3-1.67v1.67a7.12,7.12,0,0,0,7.44,7.25c2.66,0,4.17-.24,6.16-1.82,2.9-2.29,3.15-10.15.05-12.76C241.67,194.86,232.43,196.16,232.43,204.25Z" class="cls-2"></path><path transform="translate(-13.65 -69.12)" d="M518.31,208c0-3.85,4.25-2.82,6.88-2.6,0,.74,0,1.49,0,2.24,0,1.19.11,1.21-.64,1.78-3,2.25-6.25,1.69-6.25-1.42Zm3.13,5.2a5.72,5.72,0,0,0,2.32-.68,19.5,19.5,0,0,0,1.8-1.36,8.21,8.21,0,0,1,.37,1.48c1.07,0,1.42-.16,2.23-.18,0-2-.18-3.21-.18-5.21,0-5.46,1.19-10.59-6.14-10.59a19.75,19.75,0,0,0-4.83.74,19.76,19.76,0,0,1,.56,2.42c3.17-.74,7.62-2,7.62,2.6,0,1-1.2.19-3,.19-3.67,0-6.87,1.07-6.87,5.2a5.08,5.08,0,0,0,4.9,5.39Z" class="cls-2"></path><path transform="translate(-13.65 -69.12)" d="M146,208v-.56c0-2.71,4.51-2.6,6.88-2,0,.74,0,1.49,0,2.24,0,1.19.11,1.21-.64,1.78-3,2.25-6.25,1.69-6.25-1.42Zm-1.3-10.6a9.36,9.36,0,0,1,.55,2.42c3.21-.75,7.63-2,7.63,2.6,0,.66-.33.47-1.11.39-2.08-.19-4.88-.4-6.73.88-3.88,2.69-2,9.51,3.19,9.51a6.15,6.15,0,0,0,4.47-1.48c.31-.31.22,0,.36-.56.44.32.5.79.56,1.48,1.07,0,1.42-.16,2.23-.18,0-2-.19-3.21-.19-5.21,0-5.6,1.19-10.59-6.13-10.59A19.75,19.75,0,0,0,144.7,197.37Z" class="cls-2"></path><path transform="translate(-13.65 -69.12)" d="M327.23,208v-.56c0-2.71,4.51-2.6,6.88-2,0,2.44.35,3.28-.63,4-3,2.25-6.25,1.69-6.25-1.42Zm-1.12-10.41a6,6,0,0,0,.29,1.58c.45,1.35,1.32-.09,4.36-.09,3.2,0,3.35,1.81,3.35,3.9-1.14-.54-4.16-.34-5.67-.09-6.49,1.12-5,10.31,1,10.31,3.78,0,3.54-1.41,5.2-1.86a11.24,11.24,0,0,1,.19,1.3c1.41,0,1.5-.17,2.23-.18,0-2-.19-3.23-.19-5.21,0-5.65,1.17-10.59-6.13-10.59C329.83,196.63,326.11,197,326.11,197.56Z" class="cls-2"></path><path transform="translate(-13.65 -69.12)" d="M125.18,197.74v8.93a6.82,6.82,0,0,0,1.46,4.67,6.23,6.23,0,0,0,4.25,1.83H132a7.18,7.18,0,0,0,3.78-1.3c.52-.38.46-.57,1.11-.74.06,2.67,2.45,1.09,2.46,1.07s0-1.43,0-2V199c0-2.11.36-1.85-2.42-1.85-.78,0-.58.84-.56,1.66s0,1.62,0,2.43v4.64a20.46,20.46,0,0,1,0,2.22c-.32,2.42-8.17,4.63-8.17-.54V197.19C126.13,197.19,125.18,196.9,125.18,197.74Z" class="cls-2"></path><path transform="translate(-13.65 -69.12)" d="M344.33,198.49a10.63,10.63,0,0,0-.19-1.3c-3.06,0-2,.44-2,3.16v12.26c3.37,0,3,.3,3-1.66,0-.81,0-1.62,0-2.43v-4.64c0-2.33-.34-2.44,1.09-3.57,2.54-2,7.09-1.91,7.09,2.45v9.85H356V202c0-5.41-7-6.66-10.49-4.17C344.93,198.3,345.1,198.42,344.33,198.49Z" class="cls-2"></path><path transform="translate(-13.65 -69.12)" d="M480.21,198.49a3.26,3.26,0,0,1-.38-1.3c-3.06,0-2,.44-2,3.16v12.26c3.37,0,3,.3,3-1.66,0-.81,0-1.62,0-2.43v-4.64c0-2.33-.34-2.44,1.09-3.57,2.87-2.28,7.09-1.38,7.09,2.08v10.22h2.79v-11c0-3.68-4.74-6.26-9.41-4.39C481.42,197.62,480.84,198.32,480.21,198.49Z" class="cls-2"></path><path transform="translate(-13.65 -69.12)" d="M252.32,208c0,3.6,3.06,5.2,6.69,5.2,2.23,0,3.49-1.14,4.83-2,.12.51.26,1,.38,1.48,1.08,0,1.29-.18,2.23-.18,0-1.18-.19-1.55-.19-2.79V197.19c-3.69,0-3-.75-3,4.09v4.83c0,2.35.51,2.24-1,3.32-3,2.18-7.23,1.88-7.23-2.21v-10h-2.79Z" class="cls-2"></path><path transform="translate(-13.65 -69.12)" d="M386.71,201.09c0,5.53,9.65,4.46,9.8,7.46.16,3.18-7.77,2.71-8.5,0a13.39,13.39,0,0,0-2.23,1.31c1.12,2.12,3.61,3.15,6.15,3.34h1.73c3-.22,5.69-1.6,5.69-3.72,0-2.92-.23-4-4.39-5.46-2.43-.84-5.28-1.07-5.28-2.9,0-2.33,3.79-2.34,5.64-1.55,1.07.45,1.16,1,2,1.55a5.57,5.57,0,0,1,2.05-1.3C397,195.25,386.71,195.44,386.71,201.09Z" class="cls-2"></path><path transform="translate(-13.65 -69.12)" d="M109.19,201.09c0,5.57,9.67,4.5,9.67,7.43,0,2-2.07,2.24-4.09,2.24a5.3,5.3,0,0,1-4.46-2.24,7,7,0,0,0-2,1.49,8.2,8.2,0,0,0,6.18,3.16h1.88c3-.25,5.51-1.73,5.51-4.27v-.75c0-5.16-9.66-3.68-9.66-7.25,0-2.26,5.48-2.72,7.43.19a10.39,10.39,0,0,0,2.05-1.49C119.44,195.44,109.19,195.31,109.19,201.09Z" class="cls-2"></path><path transform="translate(-13.65 -69.12)" d="M176.11,199.6h8l-6.45,8.61c-2.22,3-2.1,1.92-2.1,4.4h12.64V210.2h-8.55l4.33-5.71c.33-.44,4.22-5.4,4.22-5.82v-1.48H176.11Z" class="cls-2"></path><path transform="translate(-13.65 -69.12)" d="M450.09,193.28v4.09c-.82,0-.87.19-1.86.19v2h1.86v9.11c0,3,2,4.24,4.2,4.46h1.65a9.26,9.26,0,0,0,1.21-.19,8.77,8.77,0,0,1,1.49-.37,7.57,7.57,0,0,0-.55-2.41c-.81.06-5,1.74-5-1.12V199.6c5.14,0,4.46.51,4.46-1.86,0-1-1.84-.55-4.46-.55v-4.28A20.06,20.06,0,0,0,450.09,193.28Z" class="cls-2"></path><path transform="translate(-13.65 -69.12)" d="M496.93,193.28v4.09c-.82,0-.87.19-1.85.19v2h1.85v8.92a4.87,4.87,0,0,0,1.08,3.39,5.78,5.78,0,0,0,3.43,1.26h1.17a7.38,7.38,0,0,0,2.87-.74c-.3-3.66-1.21-1.67-3.9-1.67a1.68,1.68,0,0,1-1.67-1.68V199.6h4.27v-2.41h-4.27v-4.28A16.08,16.08,0,0,0,496.93,193.28Z" class="cls-2"></path><path transform="translate(-13.65 -69.12)" d="M533.18,187.52v25.09H536V186.78c-.8,0-.66.13-1.5.17S533.18,186.8,533.18,187.52Z" class="cls-2"></path><path transform="translate(-13.65 -69.12)" d="M160.87,187.52v25.09h2.79V186.78c-.8,0-.66.13-1.51.17C161.47,187,160.87,186.8,160.87,187.52Z" class="cls-2"></path><path transform="translate(-13.65 -69.12)" d="M317,198.49a3.21,3.21,0,0,0-.38-1.3c-.81,0-1,.18-2,.18,0,1.78.18,2.84.18,4.65v10.59h2.79V201.83c0-1.17,2.05-2.78,3.16-2.78a8.78,8.78,0,0,1,2,.55,10.57,10.57,0,0,0,.93-2.41c-1.26-.11-2.79-1.25-5.14.07A18.65,18.65,0,0,0,317,198.49Z" class="cls-2"></path><path transform="translate(-13.65 -69.12)" d="M273.88,198.49a6,6,0,0,0-.37-1.3c-.81,0-1,.18-2,.18,0,2.27.18,3.85.18,6.14v9.1h2.79V201.46c0-.68,1.83-2.41,3.16-2.41a8.69,8.69,0,0,1,2,.55c.21-.89.68-1.34.93-2.41-1.25-.11-2.67-1.22-5,0C274.66,197.63,274.6,198,273.88,198.49Z" class="cls-2"></path><path transform="translate(-13.65 -69.12)" d="M508.27,212.61c2,0,3,.29,3-.55V197.74c0-.84-1-.55-3-.55Z" class="cls-2"></path><path transform="translate(-13.65 -69.12)" d="M102,197.74v14.87c2,0,3,.29,3-.55V197.74c0-.79-.71-.55-2.42-.55C102.07,197.19,102,197.32,102,197.74Z" class="cls-2"></path><rect height="15.43" width="2.79" y="128.07" x="155.39" class="cls-3"></rect><path transform="translate(-13.65 -69.12)" d="M378.53,193.28c1.75,0,1.7.58,1.86-3.16.05-1.21.35-2.45.37-3.53H378C378,188.94,378.53,190.91,378.53,193.28Z" class="cls-2"></path><path transform="translate(-13.65 -69.12)" d="M168.67,190.87c0,1.2.37,2.24,1.84,2.17a2,2,0,0,0,1.88-1.8C172.39,188.79,168.67,188.59,168.67,190.87Z" class="cls-2"></path><path transform="translate(-13.65 -69.12)" d="M507.9,190.68c0,3.82,3.72,2.31,3.72.56C511.62,188.56,507.9,189,507.9,190.68Z" class="cls-2"></path><path transform="translate(-13.65 -69.12)" d="M101.57,191.05c0,2.85,3.72,2.35,3.72.19C105.29,188.62,101.57,188.75,101.57,191.05Z" class="cls-2"></path></svg>